PathFileType	4	(X/Y/Z)	Patient4_TMGait_0pt4_02_right_38.trc.trc
DataRate	CameraRate	NumFrames	NumMarkers	Units	OrigDataRate	OrigDataStartFrame	OrigNumFrames
76.086956521739	76.086956521739	4	33	mm	76.086956521739	36	       141
Frame#	Time	Sacral			L.Shoulder			Chest			R.Shoulder			Neck			R.ASIS			L.ASIS			R.Thigh.Superior			R.Thigh.Lateral			R.Thigh.Inferior			R.Patella			L.Thigh.Superior			L.Thigh.Lateral			L.Thigh.Inferior			L.Patella			L.Shank.Superior			L.Shank.Lateral			L.Shank.Inferior			R.Shank.Superior			R.Shank.Lateral			R.Shank.Inferior			R.Heel			R.Midfoot.Superior			R.Midfoot.Lateral			R.Toe			L.Heel			L.Midfoot.Lateral			L.Midfoot.Superior			L.Toe			L.Elbow			L.Wrist			R.Elbow			R.Wrist			
		X1	Y1	Z1	X2	Y2	Z2	X3	Y3	Z3	X4	Y4	Z4	X5	Y5	Z5	X6	Y6	Z6	X7	Y7	Z7	X8	Y8	Z8	X9	Y9	Z9	X10	Y10	Z10	X11	Y11	Z11	X12	Y12	Z12	X13	Y13	Z13	X14	Y14	Z14	X15	Y15	Z15	X16	Y16	Z16	X17	Y17	Z17	X18	Y18	Z18	X19	Y19	Z19	X20	Y20	Z20	X21	Y21	Z21	X22	Y22	Z22	X23	Y23	Z23	X24	Y24	Z24	X25	Y25	Z25	X26	Y26	Z26	X27	Y27	Z27	X28	Y28	Z28	X29	Y29	Z29	X30	Y30	Z30	X31	Y31	Z31	X32	Y32	Z32	X33	Y33	Z33	

36	50.600000000000	836.864182780995	1000.746735397907	473.661815015959	1029.845319654078	1430.646996980288	302.500898610545	1121.971723414983	1358.741640051183	468.865617852989	1029.107891948764	1432.245239548688	638.405547081771	1021.733136322059	1492.709900551760	457.605242624642	1064.068903653962	940.831490293009	600.002437352742	1057.155143318352	958.905847190764	324.478197563697	1120.842080863225	747.229313941505	568.300749592983	1050.064915922535	633.798954466707	630.619232373239	1130.096676299333	587.501854681918	548.909453219485	1137.262206529904	500.245006051060	556.195933082275	1097.803819724785	740.168746358845	347.388282920112	1009.910840808853	626.816821395928	276.559739584145	1095.494194103180	542.583938136476	334.096247036374	1090.161746844222	460.448673568247	331.229556677042	1029.904033984709	399.699564752164	322.215408365160	898.122352687888	337.580313519546	270.139529436158	903.054532325320	208.049008028660	325.741786647016	1114.326202182571	409.479219483121	566.368780786067	1049.954305383957	303.545596633703	632.950800203934	1095.983691838661	209.856095160331	569.206575804955	970.070142250989	41.741183500766	545.115349412978	1140.607022148863	97.769130454924	572.815912412755	1056.337867797953	37.074016441434	616.940619463125	1263.287644065086	48.852155554157	596.572100979237	728.594043126251	103.409719452794	362.730508949482	793.250913387814	77.604995397905	279.915046042712	891.890294036537	112.295530492606	301.771014503451	995.229349342389	34.758942497460	266.234966007654	1023.360053520081	1080.231045339295	179.241013339510	1156.289009503707	852.529398042411	175.225567789097	955.681824278419	1092.432171854547	756.628138121632	1051.430789586422	849.040470613074	765.228813127683	
37	50.613142857143	836.895283655490	1001.360086517245	477.635517313244	1028.698211287853	1431.402617799375	306.092630306764	1122.162791943900	1359.158101888304	471.567642581977	1030.800262960485	1432.391371537693	642.037282506504	1021.715202898156	1493.120466231873	461.408161475599	1064.732599287754	941.289164519873	602.651911577396	1055.965046269153	959.219844447676	327.346635410920	1119.877244217531	746.707504018559	571.551671686317	1047.720902964509	633.710023492854	633.129290791412	1127.641192558689	587.010911441932	551.523629225411	1134.068814192847	499.800107811073	558.272094821685	1101.797794596396	743.297740249634	350.217711058380	1018.581081680853	627.855932155217	278.449886561781	1106.682144664151	545.522681945734	335.845216502280	1102.539683587948	462.181181564777	332.280427705562	1040.454503149080	401.337756894592	323.493889497488	906.547304081064	343.597879789204	271.582745369209	907.628862589185	213.890963284457	326.792854699619	1110.690859135282	409.140291822841	568.104644338674	1045.831428679864	303.241980996399	634.193228022355	1091.440637866158	209.661499030180	570.056690405798	964.907034693519	41.703101715406	545.255193624638	1135.471258947424	97.795316292526	573.146868250691	1051.175982843834	37.038612459106	617.125381844687	1258.128818871066	48.900197049585	596.756221560711	729.202327345587	116.641520543212	363.728853231391	792.591037417885	87.712675528889	280.866483823977	893.030020969960	117.412814044370	302.589012454013	991.903124173628	34.418040217845	267.029518545709	1016.541869304317	1080.537688711435	184.083244128860	1139.330094957838	847.204985924742	177.264265150318	963.304583702550	1091.582392235100	761.714825053704	1065.974982422987	851.126753514362	768.810256448081	
38	50.626285714286	836.748059989205	1001.974507648151	481.468290087418	1027.458066710776	1432.071345866473	309.485022643737	1122.319246540488	1359.481449477378	474.019996813849	1032.608344629304	1432.521617894446	645.469773494060	1021.694607410179	1493.487716703306	465.005699143072	1065.186310268146	941.696637714203	605.164907607151	1054.662636961952	959.474300612814	330.060641813603	1118.657526879314	746.145518750618	574.749406516984	1045.113434813383	633.592210576690	635.563316955182	1124.952526248949	586.498471155747	554.095668980810	1130.620262318385	499.355896147878	560.337563882548	1105.628237660001	746.665075855569	352.897288919497	1027.209110109910	629.282124257801	280.098272601921	1117.636836334259	548.973655351503	337.454253691894	1114.811772301553	464.544328856988	333.270106582797	1051.182995746931	403.417605976383	324.717871130436	915.429960614245	349.672124933940	272.988951352013	912.919052809096	219.931003116435	328.001534577129	1106.840321934795	408.804143826173	569.820831065956	1041.485246904730	302.921693247209	635.389097935217	1086.728524752451	209.459432772357	570.890841349772	959.616450167757	41.673875698039	545.369639642600	1130.270638990677	97.776040252515	573.525258753134	1045.888076813625	36.986667409766	617.285714273834	1252.858866444674	48.832583682921	596.915313344012	730.960656519455	129.658513602149	364.929642963589	793.156180880919	97.923516569427	282.021241360840	895.168319063996	122.897223123048	303.716935622497	989.818950062468	34.448340193097	268.120991582982	1009.417486336167	1080.969694806940	188.468684047850	1122.246318558422	842.721412858011	179.358868033403	971.188373309138	1090.857355948799	766.750468105967	1080.655426704595	853.511536129152	772.246232536433	
39	50.639428571429	836.446137619364	1002.576081384570	485.138312372097	1026.155451216876	1432.663658879046	312.667203003480	1122.448665838494	1359.719518624431	476.221858303535	1034.517330638158	1432.638554688059	648.696896522221	1021.680870854770	1493.820494535219	468.386523265306	1065.449889867932	942.054694926522	607.543632198218	1053.324808862822	959.700791251165	332.614437860716	1117.231632568758	745.577285143710	577.779179886810	1042.389742114286	633.474611052030	637.897018560979	1122.109981187883	585.984036185746	556.552236835024	1127.002846736589	498.919588998596	562.357409433211	1109.220758506198	750.208120589597	355.397289211251	1035.535252434661	631.090106702491	281.521884591091	1128.093230026993	552.880065877637	338.885003002579	1126.717407158234	467.500353120313	334.146469252913	1061.862040935613	405.913019688942	325.844401139596	924.566661366150	355.595666004573	274.342651398200	918.923240572705	225.910646022578	329.317621967966	1102.858676621527	408.478482484853	571.490902292944	1037.006675801427	302.606237028571	636.545751515224	1081.911426331427	209.257135758269	571.699707374044	954.240993115920	41.655673106403	545.475253058511	1125.033202567064	97.731215813421	573.935257446872	1040.519778862965	36.928189400354	617.432484678520	1247.519176457207	48.680447952350	597.056299348027	734.000220187575	141.796738158285	366.284192470271	795.160623550713	107.680198780211	283.343522052205	898.463886316763	128.477625688557	305.092112100430	989.386330872588	34.913663528978	269.474698740460	1002.012035927485	1081.544230207668	192.410882937298	1105.173973704463	839.066314215246	181.522802560490	979.323345009648	1090.255575173904	771.682370374734	1095.406616897569	856.164070509231	775.494293499975	
